<?xml version="1.0" encoding="UTF-8"?>
<svg width="46px" height="55px" viewBox="0 0 46 55" version="1.1" xmlns="http://www.w3.org/2000/svg" xmlns:xlink="http://www.w3.org/1999/xlink">
    <!-- Generator: Sketch 44.1 (41455) - http://www.bohemiancoding.com/sketch -->
    <title>aqbz</title>
    <desc>Created with Sketch.</desc>
    <defs></defs>
    <g id="Page-1" stroke="none" stroke-width="1" fill="none" fill-rule="evenodd">
        <g id="home" transform="translate(-287.000000, -1470.000000)" fill="#FFFFFF">
            <g id="解决方案" transform="translate(0.000000, 1204.000000)">
                <g id="aqbz" transform="translate(287.000000, 266.000000)">
                    <g id="Group-3" transform="translate(0.000000, 0.654568)">
                        <path d="M3.10876674,10.5007684 L3.10876674,30.7411694 C3.10876674,40.3757544 16.3602839,51.6791747 23.1575693,51.6791747 C29.9570762,51.6791747 43.2149403,40.3770286 43.2162097,30.7424435 L43.2063719,10.5007684 C41.7494254,10.4208147 37.0897988,10.0226387 32.3317943,8.09578535 C27.4988955,6.13548527 24.1813353,3.96590388 23.1588387,3.25874331 C22.2109191,3.908248 18.7886339,6.14790836 13.9881046,8.09482973 C9.21137649,10.0312393 4.55174992,10.4243186 3.10876674,10.5007684 Z M23.1575693,54.242791 C15.252738,54.242791 0.554429458,42.1621312 0.554429458,30.7411694 L0.554429458,7.99066689 L2.63242679,7.9556274 C2.68732806,7.95435324 7.79092505,7.84158979 13.0316165,5.71851536 C18.3097552,3.57664702 21.7793252,1.10158501 21.9240361,0.997740707 L23.1550305,0.102641059 L24.4110955,1.00888964 C24.7801717,1.2716858 28.162471,3.63780686 33.2885997,5.71851536 C38.5492841,7.84923477 43.6589108,7.95435324 43.7100038,7.9556274 L45.7603919,7.99194105 L45.770547,30.7424435 C45.7692776,42.1634054 31.0646221,54.242791 23.1575693,54.242791 L23.1575693,54.242791 Z" id="Fill-1"></path>
                    </g>
                    <polygon id="Fill-4" points="21.8991243 36.4284271 13.433221 27.9307141 15.2389334 26.1178985 21.8991243 32.8031142 34.2239841 20.4319452 36.0300139 22.2444423"></polygon>
                </g>
            </g>
        </g>
    </g>
</svg>