<?xml version="1.0" encoding="UTF-8"?>
<svg width="53px" height="48px" viewBox="0 0 53 48" version="1.1" xmlns="http://www.w3.org/2000/svg" xmlns:xlink="http://www.w3.org/1999/xlink">
    <!-- Generator: Sketch 44.1 (41455) - http://www.bohemiancoding.com/sketch -->
    <title>cdfl</title>
    <desc>Created with Sketch.</desc>
    <defs></defs>
    <g id="Page-1" stroke="none" stroke-width="1" fill="none" fill-rule="evenodd">
        <g id="home" transform="translate(-557.000000, -1431.000000)" fill="#FFFFFF">
            <g id="解决方案" transform="translate(0.000000, 1204.000000)">
                <g id="Group-13" transform="translate(456.000000, 191.000000)">
                    <g id="cdfl" transform="translate(101.000000, 36.000000)">
                        <path d="M46.5155354,42.5162184 L46.4539608,42.5162184 C45.6446943,42.5162184 44.9910326,41.8774195 44.9910326,41.0918122 L44.9910326,39.2251607 C44.9910326,38.4395534 45.6446943,37.8004513 46.4539608,37.8004513 L46.5155354,37.8004513 C47.3248019,37.8004513 47.9787669,38.4395534 47.9787669,39.2251607 L47.9787669,41.0918122 C47.9787669,41.8774195 47.3248019,42.5162184 46.5155354,42.5162184 Z M15.653908,42.5162184 L15.59294,42.5162184 C14.7851901,42.5162184 14.1297085,41.8516371 14.1297085,41.0302376 L14.1297085,26.521375 C14.1297085,25.7002789 14.7851901,25.0356976 15.59294,25.0356976 L15.653908,25.0356976 C16.4613546,25.0356976 17.1171395,25.7002789 17.1171395,26.521375 L17.1171395,41.0305409 C17.1171395,41.8519404 16.4613546,42.5162184 15.653908,42.5162184 L15.653908,42.5162184 Z M25.5528633,42.5162184 L25.491592,42.5162184 C24.6844488,42.5162184 24.0283605,41.8507271 24.0283605,41.027811 L24.0283605,32.326376 C24.0283605,31.5034599 24.6844488,30.8379686 25.491592,30.8379686 L25.5528633,30.8379686 C26.3603099,30.8379686 27.0160949,31.5034599 27.0160949,32.326376 L27.0160949,41.0281143 C27.0160949,41.8510304 26.3603099,42.5162184 25.5528633,42.5162184 L25.5528633,42.5162184 Z M36.6162768,42.5162184 L36.5553088,42.5162184 C35.7442223,42.5162184 35.0920773,41.8977422 35.0920773,41.1409506 L35.0920773,36.8552959 C35.0920773,36.0988077 35.7442223,35.4797248 36.5553088,35.4797248 L36.6162768,35.4797248 C37.4276665,35.4797248 38.0798116,36.0985043 38.0798116,36.8552959 L38.0798116,41.1409506 C38.0798116,41.8977422 37.4276665,42.5162184 36.6162768,42.5162184 L36.6162768,42.5162184 Z M5.75495265,42.5162184 L5.69368135,42.5162184 C4.88562812,42.5162184 4.23044983,41.8604334 4.23044983,41.0517736 L4.23044983,17.2169333 C4.23044983,16.4082734 4.88593144,15.7524885 5.69368135,15.7524885 L5.75495265,15.7524885 C6.56300588,15.7524885 7.21818417,16.4082734 7.21818417,17.2169333 L7.21818417,41.0520769 C7.21818417,41.8610401 6.5633092,42.5162184 5.75495265,42.5162184 L5.75495265,42.5162184 Z M1.47657774,45.0247019 L49.8417786,45.0247019 C50.6577182,45.0247019 51.318053,45.6777569 51.318053,46.4821703 L51.318053,46.5422283 C51.318053,47.3466416 50.6577182,48 49.8417786,48 L1.47657774,48 C0.660638111,48 0,47.3466416 0,46.5422283 L0,46.4821703 C0,45.6777569 0.660638111,45.0247019 1.47657774,45.0247019 L1.47657774,45.0247019 Z M43.5930156,9.499479 C43.5732996,10.0439443 43.1262011,10.4749667 42.5814324,10.4749667 L39.7502129,10.4749667 L39.1796618,11.5681438 L39.1511494,11.6852266 L39.1511494,12.7887167 L42.636334,12.7887167 C43.1956621,12.7887167 43.6488271,13.2418817 43.6488271,13.8009065 L43.6488271,13.9283023 C43.6488271,14.4873271 43.1953588,14.9404921 42.636334,14.9404921 L39.1511494,14.9404921 L39.1511494,17.8739315 C39.1511494,18.8102905 38.3919313,19.5695087 37.455269,19.5695087 C36.51891,19.5695087 35.7596918,18.8102905 35.7596918,17.8739315 L35.7596918,14.9404921 L32.3743006,14.9404921 C31.8152758,14.9404921 31.3618075,14.4873271 31.3618075,13.9283023 L31.3618075,13.8009065 C31.3618075,13.2418817 31.8152758,12.7887167 32.3743006,12.7887167 L35.7596918,12.7887167 L35.7596918,11.6852266 L35.7308761,11.5681438 L35.1600217,10.47527 L32.3743006,10.47527 C31.8152758,10.47527 31.3618075,10.0218017 31.3618075,9.46277688 L31.3618075,9.22891463 C31.3618075,8.66988982 31.8152758,8.21672484 32.3743006,8.21672484 L34.0786742,8.21672484 L31.5765604,1.8627087 C31.3521012,1.2933709 31.6320686,0.650022218 32.2017097,0.425866311 C32.3309254,0.374908 32.4686342,0.348518874 32.6075563,0.348518874 L32.7549714,0.348518874 C33.7471418,0.348518874 34.6255661,0.991260911 34.9255528,1.93732623 L37.2007807,9.10485541 L39.5712522,1.91336369 C39.878822,0.979734626 40.7511798,0.348822198 41.7342505,0.348822198 L41.9526433,0.348822198 C42.5653563,0.348822198 43.0621999,0.845362412 43.0621999,1.45837877 C43.0621999,1.60579388 43.0327775,1.75138906 42.9757527,1.88727789 L40.322584,8.21672484 L42.5899255,8.21672484 C43.1489503,8.21672484 43.6021153,8.66988982 43.6021153,9.22921796 C43.6021153,9.24104756 43.5990821,9.3314379 43.5930156,9.499479 Z M44.8342145,34.9956209 C44.3513238,34.5093937 44.3598169,33.7216631 44.8548405,33.2366492 L47.7715971,30.3769173 L47.2492745,30.3135227 C40.2801187,29.4660374 33.8639213,27.6642971 28.0179717,25.0353942 C22.0594891,22.3570496 16.8022899,18.8833914 12.2154353,14.8194661 C7.85789297,10.9566441 4.44186616,6.88665224 1.88454756,2.98470153 C1.03857892,1.86452864 1.15475174,0.759825246 1.93884243,0.239929139 C2.71838326,-0.277237059 3.77789149,0.0370058626 4.46006555,1.22785307 C5.754346,3.21007073 7.3489165,5.3215041 9.2574266,7.4723695 C14.5473847,13.4357052 21.2022975,18.5700585 29.3219585,22.2199475 C34.8609449,24.7099284 40.924984,26.4176384 47.5410715,27.2323648 L48.2663174,27.3215418 L47.7518811,26.802859 L45.000739,24.0295742 C44.5181516,23.5430437 44.5266447,22.7559198 45.0216683,22.2702992 C45.5166919,21.7843753 46.3117022,21.7864986 46.7945929,22.2739391 L52.2265062,27.7501376 C52.7093969,28.2363648 52.7006005,29.0231854 52.2058802,29.508806 L46.6077457,34.9995641 C46.1115088,35.485488 45.3177118,35.4830614 44.8342145,34.9956209 L44.8342145,34.9956209 Z" id="Fill-1"></path>
                    </g>
                </g>
            </g>
        </g>
    </g>
</svg>