<?xml version="1.0" encoding="UTF-8"?>
<svg width="24px" height="42px" viewBox="0 0 24 42" version="1.1" xmlns="http://www.w3.org/2000/svg" xmlns:xlink="http://www.w3.org/1999/xlink">
    <!-- Generator: Sketch 44.1 (41455) - http://www.bohemiancoding.com/sketch -->
    <title>Fill 1 Copy</title>
    <desc>Created with Sketch.</desc>
    <defs></defs>
    <g id="Page-1" stroke="none" stroke-width="1" fill="none" fill-rule="evenodd">
        <g id="home" transform="translate(-1275.000000, -3027.000000)" fill="#6C6B6B">
            <g id="PARTNERS" transform="translate(0.000000, 2639.000000)">
                <g id="Group-10">
                    <g id="Group-29" transform="translate(1275.000000, 388.000000)">
                        <path d="M4.17425929,20.6039542 L23.4937531,38.2642766 C24.168749,38.9383372 24.168749,40.0293627 23.4937531,40.7021182 C22.8187572,41.3761788 21.725445,41.3761788 21.0504491,40.7021182 L0.491199941,21.9096611 C0.132042657,21.5507712 -0.0215124373,21.0744263 0.00240983002,20.6039542 C-0.0215124373,20.1334821 0.132042657,19.6584423 0.491199941,19.2982473 L21.0504491,0.504811356 C21.725445,-0.168270452 22.818434,-0.168270452 23.4937531,0.504811356 C24.1674559,1.17854569 24.1674559,2.26989743 23.49246,2.94265298 L4.17425929,20.6039542 Z" id="Fill-1-Copy" transform="translate(12.000000, 20.603832) scale(-1, 1) translate(-12.000000, -20.603832) "></path>
                    </g>
                </g>
            </g>
        </g>
    </g>
</svg>