<?xml version="1.0" encoding="UTF-8"?>
<svg width="48px" height="50px" viewBox="0 0 48 50" version="1.1" xmlns="http://www.w3.org/2000/svg" xmlns:xlink="http://www.w3.org/1999/xlink">
    <!-- Generator: Sketch 44.1 (41455) - http://www.bohemiancoding.com/sketch -->
    <title>jhzf</title>
    <desc>Created with Sketch.</desc>
    <defs>
        <polygon id="path-1" points="47.982069 0.228876202 47.982069 24.1423908 0 24.1423908 0 0.228876202"></polygon>
    </defs>
    <g id="Page-1" stroke="none" stroke-width="1" fill="none" fill-rule="evenodd">
        <g id="home" transform="translate(-833.000000, -1472.000000)">
            <g id="解决方案" transform="translate(0.000000, 1204.000000)">
                <g id="jhzf" transform="translate(833.000000, 268.000000)">
                    <path d="M40.8819862,32.0143364 C41.4687448,32.3403974 42.2072276,32.1264459 42.5313655,31.5362061 C45.2466759,26.584796 45.8869517,20.7534373 44.3131586,15.3297244 C41.0475034,4.06688285 29.2646069,-2.43019525 18.0510897,0.851227398 C9.39122759,3.3933934 3.28336552,11.1750132 2.83371034,20.2381222 C2.79674483,20.9074491 3.30626207,21.4802066 3.97191724,21.5173914 C4.64750345,21.5567962 5.21826207,21.045921 5.25688276,20.376594 C5.65798621,12.3374554 11.0629517,5.44993659 18.7266759,3.19609179 C28.6475034,0.29622991 39.0786759,6.04739139 41.968331,16.0165338 C43.3691586,20.8147646 42.8066759,25.9770737 40.4061241,30.3562814 C40.0847448,30.9465212 40.2974345,31.6871654 40.8819862,32.0143364 Z" id="Fill-1" fill="#FFFFFF"></path>
                    <path d="M29.6337103,17.3415903 C30.3059862,17.3926501 30.8919172,16.8856598 30.9426759,16.2093954 C30.9931586,15.533131 30.4894345,14.9437236 29.8171586,14.8926639 C29.7559172,14.8879464 29.6946759,14.8879464 29.6337103,14.8926639 L25.8888828,14.8926639 L29.2993655,10.4216041 C29.7068138,9.88464402 29.6066759,9.11735999 29.0750897,8.70444186 C28.5396414,8.30040369 27.7807448,8.40391072 27.3716414,8.93698581 L23.992331,13.3697508 L20.6130207,8.9403158 C20.2301241,8.3867058 19.4737103,8.25017642 18.9233655,8.63534468 C18.3732966,9.02051293 18.2375724,9.78141449 18.6201931,10.3350245 C18.6417103,10.3661043 18.6646069,10.3960742 18.6888828,10.4249341 L22.0993655,14.8959938 L18.3509517,14.8959938 C17.6786759,14.8957163 17.1332966,15.4437764 17.1330207,16.1200408 C17.1327448,16.7963052 17.6772966,17.3446428 18.3495724,17.3449203 L18.3509517,17.3449203 L22.7818483,17.3449203 L22.7818483,20.4809336 L18.3509517,20.4809336 C17.6786759,20.4803786 17.1332966,21.0284386 17.1330207,21.704703 C17.1327448,22.3809675 17.6772966,22.929305 18.3495724,22.9295825 L18.3509517,22.9295825 L22.7818483,22.9295825 L22.7818483,28.5039773 C22.7818483,29.1794092 23.3261241,29.7266367 23.9975724,29.7266367 C24.6687448,29.7266367 25.2130207,29.1794092 25.2130207,28.5039773 L25.2130207,22.9229225 L29.6406069,22.9229225 C30.3095724,22.9229225 30.8577103,22.374585 30.8577103,21.6983206 C30.8577103,21.0217786 30.3062621,20.4773261 29.6370207,20.4773261 L25.2094345,20.4773261 L25.2094345,17.3415903 L29.6337103,17.3415903 Z" id="Fill-3" fill="#FFFFFF"></path>
                    <g id="Group-7" transform="translate(0.000000, 25.829583)">
                        <mask id="mask-2" fill="white">
                            <use xlink:href="#path-1"></use>
                        </mask>
                        <g id="Clip-6"></g>
                        <path d="M45.5509517,21.7004018 L20.4715034,21.7004018 C19.516469,21.53751 7.68888276,19.3485999 2.72336552,7.81158965 C2.40612414,7.03098569 2.19564138,4.26987318 2.93715862,3.13573581 C3.20612414,2.72642516 3.49936552,2.6742554 3.72667586,2.6742554 C4.2784,2.6742554 5.32695172,3.0491562 7.17164138,4.84596057 C8.04612414,5.72868408 8.84998621,6.67967228 9.57495172,7.6903227 C12.7647448,11.9185711 15.7956414,14.7457283 28.3473655,15.5435372 L28.5026759,15.5468672 C29.8433655,15.5501971 30.9330207,14.4596271 30.936331,13.1109832 C30.9377103,12.6089879 30.7848828,12.1186477 30.4990897,11.707117 C30.0317793,11.04223 29.5810207,10.3654106 29.1473655,9.67776871 C28.9026759,9.25458312 28.8025379,8.42902436 29.0544,7.98863385 C29.1956414,7.74221497 29.4750897,7.61040306 29.8750897,7.61040306 C30.4508138,7.61040306 31.816331,7.88096434 34.4784,9.67443872 C34.5578483,9.72633099 34.6406069,9.77489327 34.7197793,9.82012557 C36.1335724,10.5865771 40.9578483,13.0946107 45.5509517,14.152436 L45.5509517,21.7004018 Z M46.5266759,11.8561339 C41.5095724,10.822451 35.8370207,7.63454545 35.8301241,7.63454545 C33.3578483,5.97316047 31.4130207,5.16508413 29.8750897,5.16508413 C28.592331,5.16508413 27.5128828,5.75476896 26.940469,6.77790683 C26.1887448,8.09963335 26.4337103,9.86508036 27.0579862,10.9265131 C27.3440552,11.4088059 27.8993655,12.2376946 28.4957793,13.1012707 C16.1095724,12.3173368 13.9578483,9.46964465 11.5026759,6.21236439 C10.7068138,5.10347941 9.82350345,4.06063913 8.86129655,3.094111 C6.85081379,1.14135234 5.22350345,0.228936464 3.72336552,0.228936464 C2.57688276,0.221998995 1.50902069,0.814458815 0.902675862,1.79319689 C-0.459531034,3.87443747 -0.00435862069,7.63121547 0.488882759,8.77922777 C6.0784,21.759509 19.5647448,24.0277838 20.1338483,24.1179709 C20.2270897,24.1346208 20.3217103,24.1426683 20.416331,24.1423908 L46.1647448,24.1423908 C47.1669517,24.1423908 47.9801931,23.3259895 47.9821241,22.3178365 L47.9821241,13.6493307 C47.9829517,12.7796497 47.3744,12.0295706 46.5266759,11.8561339 Z" id="Fill-5" fill="#FFFFFF" mask="url(#mask-2)"></path>
                    </g>
                </g>
            </g>
        </g>
    </g>
</svg>