<?xml version="1.0" encoding="UTF-8"?>
<svg width="20px" height="20px" viewBox="0 0 20 20" version="1.1" xmlns="http://www.w3.org/2000/svg" xmlns:xlink="http://www.w3.org/1999/xlink">
    <!-- Generator: Sketch 44.1 (41455) - http://www.bohemiancoding.com/sketch -->
    <title>px</title>
    <desc>Created with Sketch.</desc>
    <defs></defs>
    <g id="Page-1" stroke="none" stroke-width="1" fill="none" fill-rule="evenodd">
        <g id="加入我们" transform="translate(-710.000000, -2870.000000)" fill="#FFFFFF">
            <g id="底部栏-copy" transform="translate(0.000000, 2645.000000)">
                <g id="Group-5">
                    <g id="px" transform="translate(710.000000, 225.000000)">
                        <polygon id="Page-1" points="9.98196127 0 9.67536887 0.0153296199 9.38661698 0.0533893657 9.09918661 0.0914491116 8.80752737 0.137702275 8.51864333 0.189902274 8.2448246 0.255053158 7.97087372 0.339762523 7.71661348 0.424471888 7.46222108 0.507066823 7.2061107 0.628646566 6.9651978 0.725381754 6.75137603 0.843393396 6.52843578 0.976338203 6.32267528 1.115362 6.11995428 1.27169769 5.95251782 1.41693262 5.69006416 1.65639186 5.47267429 1.87893565 5.26453506 2.09460754 5.07278266 2.31411184 4.89318823 2.53969513 4.73592748 2.75867082 4.58263128 2.97751435 4.5114014 3.07570321 4.44572191 3.19411131 4.3020728 3.40185409 4.18868648 3.60959687 4.08706167 3.80544598 3.99918066 4.012528 3.91288547 4.20322318 3.84073054 4.38030672 3.77465459 4.57100191 3.70778573 4.74583887 3.61805459 5.06339987 3.55224295 5.36919936 3.51524042 5.62451682 3.47837004 5.84468188 3.47770928 6.0138363 3.47718067 6.15127427 3.47678422 6.27219326 3.41493713 6.3374763 3.35745105 6.42667882 3.31278371 6.50689503 3.27406321 6.59252945 3.22529916 6.78018514 3.17204195 6.95132185 3.15340853 7.10607172 3.14098625 7.21879729 3.14058979 7.34064133 3.01808499 7.5129674 2.93099689 7.68555778 2.86505309 7.85074765 2.81642119 7.99928638 2.77836145 8.14201043 2.74162322 8.27561599 2.74135892 8.38847371 2.74083031 8.5132251 2.74043385 8.61696434 2.7611817 8.70048434 2.79065157 8.85232686 2.82778626 8.96835623 2.75999234 9.01830965 2.56850424 9.15746559 2.31516906 9.38199166 2.15989058 9.51520077 2.00831235 9.64537039 1.90338375 9.74950608 1.81748502 9.84161595 1.63260452 10.0333684 1.45671034 10.2267066 1.31927237 10.3922929 1.15461111 10.6322807 0.996689595 10.8487455 0.841675422 11.0888655 0.710184286 11.3107486 0.60102682 11.5479612 0.48526176 11.7677298 0.401081003 11.9845911 0.311482017 12.2097779 0.244481006 12.4290179 0.178933666 12.6557906 0.121183288 12.8508468 0.0880131623 13.0620255 0.0520678468 13.2580068 0.0212764552 13.4481733 0.00185012654 13.819388 0.000528607582 14.1643045 0 14.3183936 0.0174440502 14.4703682 0.0644901249 14.7289895 0.0814055676 14.8426401 0.113254174 14.9577444 0.152106832 15.0683556 0.187919995 15.1451358 0.245934677 15.2882563 0.290866322 15.318387 0.317693157 15.3778553 0.352316953 15.3922599 0.373329104 15.392392 0.388394421 15.392392 0.540104796 15.3787804 0.69511897 15.3409849 0.82621365 15.2903708 0.963255165 15.2051328 1.0876101 15.1245201 1.20139288 15.0210452 1.32363338 14.9117556 1.42776908 14.7995586 1.52595794 14.672032 1.61582122 14.5566634 1.69960553 14.462307 1.75259844 14.3519601 1.85554476 14.1711764 1.88739337 14.096907 1.90549818 14.0526361 1.91488096 14.0016255 1.93893261 13.9602619 1.95703742 13.9514077 1.99245413 13.9340958 2.01359843 13.934228 2.02245261 13.9515399 2.03976451 13.9516721 2.05786931 13.9607905 2.11390172 14.208311 2.17482374 14.4069353 2.25755083 14.615471 2.34027792 14.8028624 2.41018627 14.9902538 2.51789006 15.1537257 2.59678474 15.3269768 2.68493006 15.4851626 2.78814069 15.6216756 2.865846 15.753431 3.07239942 15.9976477 3.25344751 16.2147733 3.42722726 16.3852492 3.59955333 16.5370917 3.74795991 16.6564249 3.96971079 16.8502917 4.05904547 16.8927125 4.0889118 16.9342082 4.0889118 16.9544274 4.06776749 16.9724001 4.05878116 16.9724001 4.01424597 16.9872011 3.84747028 16.9986983 3.69245611 17.0191818 3.56162573 17.0359651 3.42471637 17.0647743 3.30591182 17.1004553 3.18697511 17.1360041 3.08310372 17.188997 3.00011233 17.2390826 2.89558018 17.2717241 2.82990069 17.3240563 2.75919942 17.3660806 2.68374069 17.4250203 2.58872348 17.5405211 2.55251386 17.5936461 2.50863943 17.6416173 2.44798171 17.763197 2.41467943 17.8637646 2.37516602 17.9644644 2.36657614 18.053799 2.36604754 18.170357 2.36591538 18.219914 2.34833918 18.3033018 2.34807488 18.3866897 2.32666627 18.4700775 2.32640197 18.5443469 2.34714981 18.6241666 2.36419741 18.6963216 2.41097918 18.8356096 2.443885 18.901157 2.48577715 18.9667043 2.53203032 19.0322517 2.5829088 19.0896056 2.65030626 19.1544922 2.70118474 19.2080137 2.85263081 19.3191534 3.00420904 19.4113955 3.17825308 19.4954441 3.36590878 19.5705063 3.56400447 19.6509868 3.78403737 19.7027904 4.00393813 19.7742846 4.24141508 19.8233129 4.47875989 19.8593904 4.72205153 19.8963929 4.97446165 19.9327347 5.47188138 19.9855954 5.98515934 19.9965641 6.45799882 19.9984142 6.68054262 19.9992071 6.89396793 19.9998678 7.11637957 19.9918066 7.30747121 19.971323 7.49089804 19.9570506 7.66375272 19.9426461 7.94061094 19.8903139 8.14002815 19.8377175 8.33032688 19.7904071 8.68119016 19.6488724 8.83924383 19.5907256 8.99135066 19.5168527 9.24138204 19.3810005 9.46722963 19.2714466 9.63453393 19.1683681 9.75664228 19.0589464 9.94667671 19.0807514 10.0946868 19.0963453 10.3863461 19.1184147 10.5231233 19.1189433 10.6388883 19.1193398 10.7274301 19.1370481 10.8174255 19.172597 10.9601496 19.2242684 11.1193926 19.2775256 11.4226812 19.370957 11.7319167 19.4827575 12.0337516 19.5694491 12.3371723 19.6299747 12.6479936 19.7084729 12.9695192 19.7548582 13.2745257 19.7882927 13.5811181 19.8308456 13.8666984 19.8588618 14.1731586 19.878156 14.4664037 19.8792132 14.7518518 19.8802704 15.0224989 19.8811954 15.2961854 19.8490825 15.5639252 19.8381139 15.8225464 19.7976754 16.0602877 19.7482506 16.298029 19.6980329 16.5266517 19.6454365 16.6214046 19.6195347 16.7268619 19.5868932 16.9256183 19.5109058 17.1017768 19.4312182 17.2674953 19.348359 17.4225094 19.2624603 17.5596831 19.1622891 17.6139975 19.1090319 17.6788841 19.0350269 17.7620077 18.9367058 17.8525317 18.8153904 17.885834 18.7538076 17.9011636 18.702797 17.938959 18.637514 17.9542887 18.5662841 17.954553 18.4978294 17.9726578 18.4295069 17.9550816 18.328675 17.9404127 18.2430406 17.903278 18.1414157 17.8734117 18.0577636 17.8167185 17.9567995 17.7493211 17.8641611 17.6836416 17.7835484 17.595232 17.7156223 17.4137874 17.5600796 17.209877 17.4104836 17.0043808 17.2908861 16.7883125 17.1683813 16.2932715 16.9289221 16.1745991 16.8571636 16.1424862 16.8239935 16.1216062 16.8036421 16.360669 16.5692046 16.4648046 16.4539682 16.5508355 16.3474538 16.7186684 16.1128841 16.87659 15.8727642 17.0104598 15.6598675 17.1375899 15.4545034 17.307273 15.0453611 17.4394249 14.7038806 17.5275702 14.4637606 17.5773915 14.3835444 17.6076542 14.3181293 17.6603828 14.2800695 17.6815271 14.2800695 17.6964603 14.2883951 17.8233261 14.5361799 17.9359195 14.7748462 18.0158714 14.9089804 18.0980699 15.024349 18.1802684 15.1681302 18.2850649 15.3075505 18.3733423 15.4064001 18.4264674 15.4592609 18.4795924 15.5074963 18.5276957 15.5438381 18.574081 15.5762153 18.6754416 15.6269616 18.7286988 15.6451986 18.7639833 15.6453307 18.8112937 15.6454629 18.8656081 15.6276224 18.9318162 15.5948487 19.005557 15.562868 19.0674041 15.5097429 19.124758 15.4474994 19.1897767 15.3703226 19.2410517 15.3111186 19.2985377 15.2158371 19.3424122 15.1394533 19.3939514 15.0291065 19.4213069 14.9367323 19.4958405 14.7115455 19.5448689 14.4621748 19.5805499 14.1863738 19.6051301 14.0256771 19.6056587 13.8919394 19.6060552 13.7490832 19.6068481 13.5738498 19.5718279 13.2528528 19.5206851 12.8903602 19.4557985 12.5361931 19.4038628 12.3547485 19.3535129 12.1615425 19.2865119 11.9770584 19.2180572 11.7716944 19.1391626 11.5780919 19.053396 11.3786746 18.9004962 11.0549025 18.7647762 10.7687937 18.6290562 10.5126833 18.5110446 10.2748099 18.3750603 10.0570235 18.2751535 9.85747418 18.064239 9.55973596 17.7980851 9.16341243 17.7368988 9.06469496 17.7158866 9.02333142 17.7160188 8.9909542 17.7617433 8.85748079 17.8238547 8.73880839 17.8786978 8.50384232 17.9092249 8.38292333 17.9096213 8.25737903 17.9250831 8.15601853 17.9254795 8.05531878 17.9108107 7.93955372 17.8931023 7.84387575 17.8549104 7.65053753 17.8044284 7.46393905 17.7585717 7.29108437 17.6869454 7.12378007 17.6047469 6.98449198 17.5406532 6.85273654 17.4688947 6.72851375 17.3568299 6.54389756 17.3149378 6.47835022 17.3030441 6.42192136 17.2519013 6.06471478 17.2197884 5.83001302 17.1823894 5.5391467 17.1241105 5.23823683 17.0322649 4.89358469 16.9803292 4.69945355 16.9388335 4.53624596 16.8808188 4.34581508 16.8163287 4.14349053 16.7515743 3.95609914 16.6681864 3.7543032 16.4982391 3.36432295 16.3982001 3.179046 16.2764882 2.96813157 16.1621768 2.78589411 16.0486583 2.58092652 15.8869044 2.38943842 15.7509201 2.20561513 15.584673 2.01412704 15.4155186 1.84127236 15.2446462 1.67449667 15.0424538 1.50098123 14.9360715 1.43820908 14.8356361 1.35138528 14.6166604 1.1994106 14.363986 1.03461719 14.1060255 0.885549851 13.8396072 0.75088707 13.5483445 0.627985807 13.2753187 0.511163531 12.9900027 0.408613661 12.6783885 0.324036447 12.3937334 0.249370627 12.0903126 0.182898223 11.803543 0.113518478 11.4940433 0.0791589853 11.1904903 0.0420243027 10.8885233 0.00330379738 10.5758519 0.00211443033 10.2736205 0.00105721516"></polygon>
                    </g>
                </g>
            </g>
        </g>
    </g>
</svg>