<?xml version="1.0" encoding="UTF-8"?>
<svg width="25px" height="20px" viewBox="0 0 25 20" version="1.1" xmlns="http://www.w3.org/2000/svg" xmlns:xlink="http://www.w3.org/1999/xlink">
    <!-- Generator: Sketch 44.1 (41455) - http://www.bohemiancoding.com/sketch -->
    <title>weixin</title>
    <desc>Created with Sketch.</desc>
    <defs></defs>
    <g id="Page-1" stroke="none" stroke-width="1" fill="none" fill-rule="evenodd">
        <g id="加入我们" transform="translate(-633.000000, -2870.000000)" fill="#FFFFFF">
            <g id="底部栏-copy" transform="translate(0.000000, 2645.000000)">
                <g id="Group-5">
                    <g id="weixin" transform="translate(633.000000, 225.000000)">
                        <path d="M19.5987595,9.98479597 C19.1377735,9.98479597 18.7387438,10.3834376 18.7387438,10.8752077 C18.7387438,11.27372 19.1377735,11.6745605 19.5987595,11.6745605 C20.2134075,11.6745605 20.6743935,11.27372 20.6743935,10.8752077 C20.6743935,10.3834376 20.2134075,9.98479597 19.5987595,9.98479597 M5.86748234,3.68685309 C5.22230892,3.68685309 4.54648071,4.08549473 4.54648071,4.76145228 C4.54648071,5.4068844 5.22243827,5.83682755 5.86748234,5.83682755 C6.48161294,5.83682755 6.97338306,5.4068844 6.97338306,4.76145228 C6.97338306,4.08549473 6.48135425,3.68685309 5.86748234,3.68685309 M21.5344091,17.7877986 L22.148281,19.9996 L19.8137311,18.678081 C18.9228019,18.8621391 18.0627863,19.1395843 17.1721158,19.1395843 C13.0554489,19.1395843 9.79892704,16.3123589 9.79892704,12.8096932 C9.79892704,9.3090971 13.0554489,6.48251835 17.1721158,6.48251835 C21.0732938,6.48251835 24.5755714,9.3090971 24.5755714,12.8096932 C24.5755714,14.7766444 23.2548284,16.5269424 21.5344091,17.7877986 M8.72393981,14.7766444 C7.58725496,14.7766444 6.75776475,14.5923276 5.68251883,14.2848742 L2.58004696,15.8511142 L3.47149348,13.210275 C1.28995881,11.6745605 0,9.73787615 0,7.37280076 C0,3.19508297 3.93183273,0 8.72393981,0 C12.9634846,0 16.741914,2.51925476 17.4789224,6.08271261 C17.1721158,6.02101499 16.8957053,5.99074824 16.6498203,5.99074824 C12.4717144,5.99074824 9.24662341,9.12478031 9.24662341,12.902563 C9.24662341,13.5482538 9.33871713,14.1308242 9.49212043,14.7461189 C9.24662341,14.7766444 8.96982487,14.7766444 8.72393981,14.7766444 M11.9495482,5.83682755 C12.6255058,5.83682755 13.0554489,5.4068844 13.0554489,4.76145228 C13.0554489,4.08549473 12.6255058,3.68685309 11.9495482,3.68685309 C11.3046335,3.68685309 10.6899855,4.08549473 10.6899855,4.76145228 C10.6899855,5.4068844 11.3046335,5.83682755 11.9495482,5.83682755 M14.7754802,9.98479597 C14.3455371,9.98479597 13.9154646,10.3834376 13.9154646,10.8752077 C13.9154646,11.27372 14.3455371,11.6745605 14.7754802,11.6745605 C15.421171,11.6745605 15.8818983,11.27372 15.8818983,10.8752077 C15.8820277,10.3834376 15.421171,9.98479597 14.7754802,9.98479597" id="Fill-1"></path>
                    </g>
                </g>
            </g>
        </g>
    </g>
</svg>