<?xml version="1.0" encoding="UTF-8"?>
<svg width="25px" height="20px" viewBox="0 0 25 20" version="1.1" xmlns="http://www.w3.org/2000/svg" xmlns:xlink="http://www.w3.org/1999/xlink">
    <!-- Generator: Sketch 44.1 (41455) - http://www.bohemiancoding.com/sketch -->
    <title>wp</title>
    <desc>Created with Sketch.</desc>
    <defs></defs>
    <g id="Page-1" stroke="none" stroke-width="1" fill="none" fill-rule="evenodd">
        <g id="加入我们" transform="translate(-783.000000, -2870.000000)" fill="#FFFFFF">
            <g id="底部栏-copy" transform="translate(0.000000, 2645.000000)">
                <g id="Group-5">
                    <g id="wp" transform="translate(783.000000, 225.000000)">
                        <path d="M19.948212,0.118188976 C19.1137184,-0.0709448819 17.9944146,-0.0331496063 16.5906171,0.231574803 C16.571788,0.231574803 16.5526424,0.240866142 16.5331804,0.259606299 L16.5050158,0.316614173 L16.4768513,0.344645669 C16.2679905,0.401496063 16.0971044,0.519606299 15.964193,0.698976378 C15.8312816,0.878503937 15.7648259,1.07204724 15.7648259,1.27976378 C15.7648259,1.56307087 15.8599209,1.79897638 16.0497943,1.98748031 C16.2398259,2.17598425 16.4673576,2.27047244 16.7327057,2.27110236 L16.8181487,2.27110236 C16.8369778,2.27110236 16.8798576,2.26181102 16.9466297,2.24307087 C17.0134019,2.22433071 17.084288,2.21015748 17.1596044,2.2003937 C17.2347627,2.1907874 17.3154589,2.17173228 17.401693,2.14338583 C17.4879272,2.11503937 17.5638766,2.08653543 17.6293829,2.05818898 C17.6948892,2.02984252 17.8230538,2.01566929 18.0135601,2.01566929 C18.2042247,2.01566929 18.4366614,2.02984252 18.7108703,2.05818898 C18.9852373,2.08653543 19.2887184,2.15724409 19.6213133,2.27015748 C19.9540665,2.38322835 20.2860285,2.52480315 20.6173576,2.69519685 C20.9488449,2.86543307 21.280807,3.10133858 21.6134019,3.40291339 C21.9459968,3.70433071 22.2352373,4.05346457 22.4809652,4.45031496 C22.9744778,5.56417323 23.0694146,6.6403937 22.7659335,7.6788189 C22.7659335,7.69755906 22.7611867,7.71661417 22.7513766,7.73598425 C22.7417247,7.75519685 22.7274842,7.80244094 22.7086551,7.87724409 C22.6898259,7.95220472 22.6706804,8.02291339 22.6513766,8.08937008 C22.6319146,8.15566929 22.612769,8.24055118 22.5939399,8.34385827 C22.5751108,8.44716535 22.5657753,8.53692913 22.5657753,8.61299213 C22.5657753,8.78275591 22.6130854,8.92433071 22.7078639,9.0380315 C22.8024842,9.1515748 22.9211551,9.23188976 23.0637184,9.27897638 C23.2064399,9.32606299 23.3724209,9.34968504 23.5618196,9.34968504 C24.0928323,9.34968504 24.405807,9.02858268 24.5004272,8.38637795 C24.7281171,7.65 24.8561234,6.94685039 24.8846044,6.27692913 C24.9132437,5.60700787 24.8659335,5.01724409 24.7426741,4.50732283 C24.6194146,3.99755906 24.4346044,3.52086614 24.1880854,3.07740157 C23.9417247,2.63409449 23.6570728,2.25645669 23.3341297,1.94480315 C23.0113449,1.63314961 22.6507437,1.34984252 22.2526424,1.09488189 C21.8543829,0.84007874 21.4702057,0.637086614 21.0999525,0.486062992 C20.7296994,0.33503937 20.3455222,0.212362205 19.9474209,0.118188976 L19.948212,0.118188976 Z M20.4315981,8.10291339 C20.5456804,8.10291339 20.6501108,8.07456693 20.7448892,8.01771654 C20.8395095,7.96102362 20.9153006,7.89031496 20.9724209,7.80574803 C21.0295411,7.7211811 21.0675158,7.63141732 21.0861867,7.53661417 C21.1050158,7.5180315 21.1145095,7.48952756 21.1145095,7.4515748 C21.3420411,5.29913386 20.5833386,4.07204724 18.8384019,3.77 C18.3260601,3.67566929 17.8518513,3.66637795 17.4154589,3.74181102 C17.2825475,3.74181102 17.1686234,3.77472441 17.0740032,3.84055118 C16.9793829,3.90637795 16.8985285,3.99125984 16.8319146,4.09519685 C16.7651424,4.19913386 16.7320728,4.3076378 16.7327057,4.42055118 C16.7327057,4.60952756 16.7991614,4.77 16.9320728,4.90165354 C17.0649842,5.03330709 17.2260601,5.09944882 17.4154589,5.10007874 C18.8952057,4.76007874 19.6918829,5.23204724 19.8053323,6.51629921 C19.8434652,6.83708661 19.8244778,7.13913386 19.7478956,7.42244094 C19.7478956,7.6115748 19.8145095,7.77188976 19.9474209,7.90354331 C20.0801741,8.03535433 20.2414082,8.10149606 20.430807,8.10212598 L20.4315981,8.10291339 Z M10.3314399,14.021811 C10.1985285,14.1159843 10.0610285,14.1585039 9.91893987,14.1495276 C9.77685127,14.1403937 9.67732595,14.0791339 9.62036392,13.9655906 L9.56292722,13.8522047 C9.5440981,13.814252 9.53476266,13.7764567 9.53476266,13.7389764 L9.53476266,13.625748 C9.53476266,13.5688976 9.5440981,13.521811 9.56292722,13.4843307 L9.62036392,13.3711024 C9.63903481,13.3329921 9.66767405,13.3046457 9.70580696,13.2859055 L9.79140823,13.1726772 C9.94314873,13.0589764 10.0899842,13.0118898 10.2320728,13.0312598 C10.3740032,13.0506299 10.4735285,13.126063 10.5306487,13.2577165 C10.587769,13.3333071 10.6113449,13.418189 10.601693,13.5123622 C10.5918829,13.6066929 10.5634019,13.6962992 10.5160918,13.7814961 C10.4687816,13.8666929 10.407231,13.9470079 10.3312816,14.0225984 L10.3314399,14.021811 Z M7.91324367,16.0605512 C7.79916139,16.0791339 7.69030063,16.0840157 7.58650316,16.0750394 C7.4827057,16.0659055 7.38776899,16.0468504 7.30153481,16.017874 C7.21530063,15.9888976 7.13001582,15.9559843 7.04568038,15.9191339 C6.96134494,15.8824409 6.89030063,15.8304724 6.8327057,15.7633858 C6.77511076,15.6962992 6.72289557,15.6301575 6.67606013,15.5649606 C6.62922468,15.4996063 6.59140823,15.4241732 6.5622943,15.3383465 C6.53318038,15.2525197 6.51893987,15.1629134 6.51941456,15.0692126 C6.51941456,14.8614961 6.57653481,14.6585039 6.69061709,14.4603937 C6.80469937,14.2622835 6.96134494,14.0922047 7.16039557,13.9501575 C7.3594462,13.8082677 7.58223101,13.7277953 7.82875,13.7090551 C7.99916139,13.6904724 8.16514241,13.6951969 8.32669304,13.7237008 C8.48808544,13.7520472 8.62558544,13.7991339 8.73919304,13.8649606 C8.85264241,13.9309449 8.95216772,14.006378 9.03776899,14.0915748 C9.12337025,14.1766142 9.18507911,14.2758268 9.22257911,14.3887402 C9.26023734,14.501811 9.27938291,14.6244882 9.28001582,14.7566142 C9.28001582,14.9644882 9.21830696,15.1625984 9.09504747,15.3511024 C8.9719462,15.5396063 8.80596519,15.6999213 8.59710443,15.8322047 C8.38824367,15.9644882 8.16071203,16.0400787 7.91435127,16.0588189 L7.91324367,16.0605512 Z M8.93761076,10.7079528 C8.38776899,10.7648031 7.89457278,10.8922047 7.45818038,11.0904724 C7.02162975,11.2885827 6.68033228,11.5150394 6.43397152,11.77 C6.18761076,12.0249606 5.97875,12.2986614 5.80754747,12.5909449 C5.63634494,12.8832283 5.51767405,13.1711024 5.45153481,13.4544094 C5.38539557,13.7377165 5.34267405,13.9972441 5.32321203,14.2328346 C5.30375,14.4684252 5.29441456,14.6523622 5.29488924,14.7846457 L5.32321203,15.0112598 L5.32321203,15.1244882 C5.32321203,15.1813386 5.34235759,15.2945669 5.38049051,15.4643307 C5.41878165,15.6340945 5.47099684,15.7898425 5.53713608,15.9318898 C5.60327532,16.0737795 5.7122943,16.229685 5.86403481,16.3994488 C6.01577532,16.5692126 6.19599684,16.7107874 6.40469937,16.8243307 C7.65691456,17.4284252 8.82337025,17.6123622 9.90438291,17.3761417 C10.9853956,17.1400787 11.8578639,16.5972441 12.521788,15.7479528 C12.7876108,15.4271654 12.9630854,15.0306299 13.0480538,14.558189 C13.1331804,14.085748 13.1140348,13.6092126 12.9907753,13.1284252 C12.8675158,12.6474803 12.6542247,12.2085827 12.3507437,11.8117323 C12.0472627,11.4148819 11.5969462,11.1079528 10.9996361,10.8911024 C10.4024842,10.674252 9.71466772,10.6129921 8.93666139,10.7071654 L8.93761076,10.7079528 Z M9.76245253,18.5523622 C7.71387658,18.6465354 5.97384494,18.25 4.54204114,17.3625984 C3.11023734,16.4751969 2.39425633,15.3518898 2.39425633,13.9926772 C2.39425633,12.6523622 3.10564873,11.4961417 4.52827532,10.5240157 C5.95106013,9.55204724 7.69599684,9.01866142 9.76324367,8.92385827 C11.8304905,8.82905512 13.5755854,9.16889764 14.998212,9.94322835 C16.4208386,10.7177165 17.132231,11.7747244 17.132231,13.1145669 C17.132231,14.4737795 16.4065981,15.6961417 14.9553323,16.7816535 C13.5042247,17.8671654 11.7735285,18.4570866 9.76324367,18.5512598 L9.76245253,18.5523622 Z M18.4396677,9.74574803 C18.1550158,9.68889764 17.9702057,9.60417323 17.8852373,9.49110236 C17.800269,9.37818898 17.7860285,9.27425197 17.8423576,9.17944882 L17.9279589,9.0380315 C17.946788,9.01929134 17.9659335,8.99094488 17.9852373,8.95283465 C18.0046994,8.91488189 18.0426741,8.83456693 18.0991614,8.71188976 C18.1554905,8.5892126 18.1983703,8.46669291 18.2274842,8.34401575 C18.2565981,8.22133858 18.2803323,8.07031496 18.2985285,7.89094488 C18.3167247,7.7115748 18.3118196,7.54149606 18.2839715,7.38086614 C18.2559652,7.22007874 18.1990032,7.04559055 18.112769,6.85708661 C18.0265348,6.66858268 17.9078639,6.49850394 17.7567563,6.34685039 C17.4909335,6.08228346 17.144731,5.9123622 16.7179905,5.83677165 C16.29125,5.76133858 15.8645095,5.75645669 15.4379272,5.82228346 C15.0111867,5.88826772 14.6081804,5.97299213 14.2289082,6.07692913 C13.8494778,6.18086614 13.5366614,6.27992126 13.2903006,6.37409449 L12.9205222,6.54448819 C12.7306487,6.60133858 12.5740032,6.63913386 12.4509019,6.65771654 C12.3276424,6.67661417 12.2325475,6.67173228 12.1659335,6.64338583 C12.0991614,6.61488189 12.0469462,6.58653543 12.009288,6.55818898 C11.9716297,6.52984252 11.9573892,6.46370079 11.9664082,6.35976378 C11.9755854,6.25582677 11.9850791,6.16606299 11.994731,6.09062992 C12.0043829,6.01519685 12.0279589,5.89708661 12.0656171,5.73629921 C12.1032753,5.57551181 12.1319146,5.44811024 12.1512184,5.35393701 C12.1512184,5.12732283 12.1369778,4.91503937 12.1084968,4.71692913 C12.0798576,4.5188189 12.018307,4.29708661 11.9235285,4.05188976 C11.8289082,3.80653543 11.6914082,3.6084252 11.5111867,3.45740157 C11.330807,3.30637795 11.1032753,3.18370079 10.8282753,3.08952756 C10.5534335,2.99535433 10.1977373,2.96685039 9.76134494,3.00433071 C9.32495253,3.04181102 8.83175633,3.15503937 8.28175633,3.34417323 C7.61783228,3.57062992 6.94441456,3.90559055 6.26166139,4.34905512 C5.57890823,4.7923622 4.98618671,5.25488189 4.48365506,5.73629921 C3.98112342,6.21771654 3.52099684,6.68496063 3.10343354,7.1380315 C2.68587025,7.59110236 2.36324367,7.95929134 2.13571203,8.24259843 L1.82242089,8.69566929 C1.19662975,9.5076378 0.732072785,10.3194488 0.428591772,11.1312598 C0.125110759,11.9432283 -0.0171360759,12.5566142 0.00169303797,12.9717323 L0.00169303797,13.566063 C0.115775316,14.4722047 0.395522152,15.2841732 0.841091772,16.001811 C1.28650316,16.7194488 1.81751582,17.2999213 2.43428797,17.7432283 C3.05106013,18.1866929 3.77653481,18.5641732 4.61102848,18.8759843 C5.44568038,19.1876378 6.24710443,19.414252 7.01545886,19.5555118 C7.78397152,19.6969291 8.59488924,19.7959843 9.44821203,19.8528346 C10.8520095,19.966378 12.3078639,19.857874 13.8154589,19.5274803 C15.3230538,19.1970866 16.726693,18.6259055 18.0262184,17.8140945 C19.3257437,17.002126 20.2409335,16.0298425 20.7719462,14.8972441 C21.0942563,14.2362992 21.2602373,13.6133071 21.2700475,13.0279528 C21.2796994,12.4425984 21.1801741,11.9659055 20.9713133,11.5980315 C20.7626108,11.2301575 20.4921994,10.9046457 20.1602373,10.6211811 C19.8282753,10.337874 19.5153006,10.1301575 19.2216297,9.99787402 C18.9278006,9.86559055 18.6670411,9.78070866 18.4395095,9.74322835 L18.4396677,9.74574803 Z" id="Fill-1"></path>
                    </g>
                </g>
            </g>
        </g>
    </g>
</svg>