<?xml version="1.0" encoding="UTF-8"?>
<svg width="64px" height="63px" viewBox="0 0 64 63" version="1.1" xmlns="http://www.w3.org/2000/svg" xmlns:xlink="http://www.w3.org/1999/xlink">
    <!-- Generator: Sketch 44.1 (41455) - http://www.bohemiancoding.com/sketch -->
    <title>zzfw</title>
    <desc>Created with Sketch.</desc>
    <defs></defs>
    <g id="Page-1" stroke="none" stroke-width="1" fill="none" fill-rule="evenodd">
        <g id="home" transform="translate(-1098.000000, -1466.000000)" stroke="#FFFFFF">
            <g id="解决方案" transform="translate(0.000000, 1204.000000)">
                <g id="zzfw" transform="translate(1130.500000, 293.500000) rotate(-315.000000) translate(-1130.500000, -293.500000) translate(1107.000000, 272.000000)">
                    <path d="M42.0587444,4.89083723 L23.8877676,37.1030235" id="Line" stroke-linecap="square"></path>
                    <path d="M42.0587444,4.89083723 L23.8877676,37.1030235" id="Line-Copy-3" stroke-linecap="square" transform="translate(32.973256, 20.996930) scale(-1, 1) translate(-32.973256, -20.996930) "></path>
                    <path d="M23.0618141,4.89083723 L4.89083723,37.1030235" id="Line-Copy-2" stroke-linecap="square"></path>
                    <path d="M23.0618141,4.89083723 L4.89083723,37.1030235" id="Line-Copy-4" stroke-linecap="square" transform="translate(13.976326, 20.996930) scale(-1, 1) translate(-13.976326, -20.996930) "></path>
                    <circle id="Oval-5-Copy-6" fill="#FFFFFF" cx="5.30381398" cy="5.30381398" r="3.30381398"></circle>
                    <circle id="Oval-5-Copy-9" fill="#FFFFFF" cx="5.30381398" cy="37.5160002" r="3.30381398"></circle>
                    <circle id="Oval-5-Copy-7" fill="#FFFFFF" cx="23.4747908" cy="5.30381398" r="3.30381398"></circle>
                    <circle id="Oval-5-Copy-10" fill="#FFFFFF" cx="23.4747908" cy="37.5160002" r="3.30381398"></circle>
                    <circle id="Oval-5-Copy-12" fill="#FFFFFF" cx="14.3893024" cy="20.9969304" r="3.30381398"></circle>
                    <circle id="Oval-5-Copy-8" fill="#FFFFFF" cx="41.6457677" cy="5.30381398" r="3.30381398"></circle>
                    <circle id="Oval-5-Copy-11" fill="#FFFFFF" cx="41.6457677" cy="37.5160002" r="3.30381398"></circle>
                    <circle id="Oval-5-Copy-13" fill="#FFFFFF" cx="32.5602793" cy="20.9969304" r="3.30381398"></circle>
                </g>
            </g>
        </g>
    </g>
</svg>